<svg width="220" height="56" viewBox="0 0 220 56" fill="none" xmlns="http://www.w3.org/2000/svg">
<path d="M56.0625 0.625C53.1667 3.8125 50.9792 6.98958 49.5 10.1562C48.0417 13.3229 46.3125 18.5625 44.3125 25.875L38.9062 45.5625L39.5312 48L43.375 51.4375H29.125L33.2188 48L27.6875 27.9688L22.3125 47.5625L27.6875 54H11.7188L11.0938 53.1562H25.9688L21.2812 47.75L27.1875 26.375L26.1562 22.6562L19.75 46.0625L20.25 48L23.9062 51.4375H9.625L13.875 48L4.78125 15.2812L0.09375 11.3438H15.375L11.0938 15.2812L18.25 41.0312L19.3438 37.25L13.3125 15.75L16.1562 13.2188L16.875 13.7188L14.2812 16.0312L19.75 35.6875L26.4375 11.3438H29.375L37.5 40.7812L38.5 37.25L31.3125 11.3438H32.1875L38.9062 35.6875L41.8438 25.125C43.6771 18.5 44.5938 14.1875 44.5938 12.1875C44.5938 9.95833 43.5521 8.20833 41.4688 6.9375C43.9062 6.16667 46.5208 5.11458 49.3125 3.78125C52.1042 2.44792 54.1875 1.25 55.5625 0.1875L56.0625 0.625ZM57.9375 3C55.4375 5.75 53.375 8.85417 51.75 12.3125C50.1458 15.7708 48.5 20.6042 46.8125 26.8125L41.2812 47L47.2812 54H31.25L30.5312 53.1562H45.375L40.3125 47.3125L46.0625 26.375C47.7708 20.1667 49.4062 15.3958 50.9688 12.0625C52.5312 8.70833 54.6146 5.51042 57.2188 2.46875L57.9375 3ZM82.7812 11.3438L79.5312 15.0312L84.6562 28.6562L85.9062 27.9688L81.2812 15.6562L84.5938 11.8438L85.4062 12.1875L82.25 15.8438L86.625 27.5C86.875 27.3125 87.0208 27.1979 87.0625 27.1562L88.0938 26.2812C88.7188 25.7812 89.1146 25.4271 89.2812 25.2188C89.8229 27.5938 90.6562 29.7188 91.7812 31.5938C91.1771 31.5521 90.7396 31.5312 90.4688 31.5312C88.4896 31.5312 87.0417 31.8438 86.125 32.4688L91.7812 47.8125L96.4688 51.4375H80.6875L85 47.8125L81.5312 38.6875C79.2396 41 77.4792 43.1979 76.25 45.2812L75.5312 45.0938C76.7604 43.0521 78.5938 40.7708 81.0312 38.25L81.2812 37.9375L80.6875 36.5625C78.2083 38.625 76.1562 41.0208 74.5312 43.75L73.9688 42.8438C72.8854 41.1146 71.5 39.1458 69.8125 36.9375L69.5 36.5625C67.8958 40.125 67.0938 43.0208 67.0938 45.25C67.0938 46.5625 67.3125 47.6771 67.75 48.5938C68.2083 49.4896 69.2917 51 71 53.125C71.1458 53.3125 71.375 53.6042 71.6875 54H54.8125L54.1875 53.1562H70.0938L69.5625 52.5C68.1875 50.8333 67.2812 49.5417 66.8438 48.625C66.4271 47.6875 66.2188 46.5938 66.2188 45.3438C66.2188 43.2188 67.0833 40.0521 68.8125 35.8438L67.4375 34.4062C67.1667 35.0729 66.8229 36.0521 66.4062 37.3438L65.375 40.5312C64.8125 42.2396 64.5312 43.6562 64.5312 44.7812C64.5312 45.9479 64.7292 46.9167 65.125 47.6875C65.5208 48.4583 66.3542 49.5104 67.625 50.8438C67.75 50.9688 67.9375 51.1667 68.1875 51.4375H52.5625C55.5417 49.8958 57.8958 47.8229 59.625 45.2188C61.375 42.6146 63.1042 38.5938 64.8125 33.1562L64.9375 32.7188C63.8333 31.7812 62.2396 31.2083 60.1562 31C61.3021 29.2917 62.1875 27.5104 62.8125 25.6562C63.1042 25.9271 63.2812 26.0938 63.3438 26.1562L64.75 27.4688C65.2292 27.9271 65.8021 28.3958 66.4688 28.875L67.0312 27.5L66.6562 27.1875C65.6146 26.2708 64.7396 25.5312 64.0312 24.9688L63.75 24.75L64.25 24.0625C65.3542 24.7917 66.4167 25.6354 67.4375 26.5938L71.6875 14.9062L68.375 11.3438H82.7812ZM75.0625 21.375L71.625 30.4375C71.8125 30.6458 71.9167 30.7708 71.9375 30.8125L73.2188 32.25C73.9062 33 74.7812 34.1667 75.8438 35.75L76.1562 36.2188C77.0521 35.0938 78.1146 33.9792 79.3438 32.875L75.0625 21.375ZM73.6562 17.75L68.6875 30.875C70.2708 32.5 71.6354 34.1042 72.7812 35.6875L74.2188 37.6875C74.2396 37.7083 74.3438 37.8438 74.5312 38.0938C74.7188 37.9062 74.8229 37.7917 74.8438 37.75L75.2812 37.2188C75.3438 37.1354 75.4583 37 75.625 36.8125C74.1667 34.5625 72.4688 32.5312 70.5312 30.7188L74.5312 20.1562L73.6562 17.75ZM92.0312 26.7188C92.4896 28.5938 93.6354 31.1667 95.4688 34.4375C95.0104 34.375 94.75 34.3438 94.6875 34.3438L92.1562 34.125C91.0104 34.0208 90.1771 33.9688 89.6562 33.9688C89.5729 33.9688 89.3646 33.9792 89.0312 34L94.25 47.8438L101.219 54H83.125L82.5312 53.1562H99.125L93.5 48.1875L87.9375 33.4688C88.6458 33.2812 89.4583 33.1875 90.375 33.1875C91.5 33.1875 92.75 33.2812 94.125 33.4688L93.75 32.7812C92.4167 30.3229 91.5208 28.1042 91.0625 26.125L92.0312 26.7188ZM135.125 12.3125L134.781 12.9062C132.906 16.1771 131.281 19.4479 129.906 22.7188L129.625 23.4375L129.219 23.2188C128.74 20.0521 127.625 17.5417 125.875 15.6875C124.125 13.8333 122.01 12.9062 119.531 12.9062C116.885 12.9062 114.677 14.0625 112.906 16.375C110.677 19.25 109.562 24.125 109.562 31C109.562 36.9167 110.583 41.5521 112.625 44.9062C114.688 48.2604 117.542 49.9375 121.188 49.9375C124.104 49.9375 126.427 48.9688 128.156 47.0312C129.906 45.0729 130.948 42.2812 131.281 38.6562C131.365 37.7812 131.719 37.3438 132.344 37.3438C133.156 37.3438 133.562 38.0208 133.562 39.375C133.562 41.3958 133.104 43.4896 132.188 45.6562C130.25 50.2396 126.25 52.5312 120.188 52.5312C114.771 52.5312 110.469 50.6354 107.281 46.8438C104.094 43.0312 102.5 37.8854 102.5 31.4062C102.5 25.4271 104.156 20.4167 107.469 16.375C110.781 12.3333 114.896 10.3125 119.812 10.3125C122.146 10.3125 124.802 10.8854 127.781 12.0312C129.344 12.6354 130.635 12.9375 131.656 12.9375C132.76 12.9375 133.75 12.6354 134.625 12.0312L135.125 12.3125ZM126.062 17.7188C124.167 16.1979 122.375 15.4375 120.688 15.4375C115.292 15.4375 112.594 20.5833 112.594 30.875C112.594 35.5625 113.219 39.4688 114.469 42.5938C115.719 45.6979 117.479 47.7083 119.75 48.625V48.9375C117.292 48.4375 115.323 46.5521 113.844 43.2812C112.385 39.9896 111.656 35.8333 111.656 30.8125C111.656 20.0417 114.615 14.6562 120.531 14.6562C122.531 14.6562 124.375 15.5417 126.062 17.3125V17.7188ZM136.25 39.1875C135.917 44.3542 134.469 48.2917 131.906 51C129.365 53.6875 125.802 55.0312 121.219 55.0312C117.74 55.0312 114.5 53.9583 111.5 51.8125V51.5625C114.167 53.3125 117.385 54.1875 121.156 54.1875C125.281 54.1875 128.646 52.8646 131.25 50.2188C132.521 48.9271 133.458 47.4792 134.062 45.875C134.667 44.2708 135.073 42.1458 135.281 39.5L135.344 38.7812L136.25 39.1875ZM137.406 13.8125L137.062 14.4062C134.792 18.2812 132.979 21.8125 131.625 25L130.781 24.5938L131.125 23.8125C132.167 21.625 133.083 19.8125 133.875 18.375L136.375 13.9375L136.688 13.375L137.406 13.8125ZM139.781 11.3438H154.406L150.062 15.4688V34.3438L151.781 32.375V15.7188L155.281 12.3125L155.75 13L152.531 16.125V31.4062L162.219 19.8438C163.615 18.1771 164.312 16.6771 164.312 15.3438C164.312 14.5521 163.917 13.8021 163.125 13.0938C162.333 12.3646 161.375 11.8854 160.25 11.6562V11.3438H176.719V11.6562C173.115 12.5312 169.229 15.4688 165.062 20.4688L160.719 25.625L172.25 48.0312L177.5 51.4375H161.281L165.375 48.375L157.625 32.875L152.531 39.0938V48.0312L157.625 54H141.594L140.75 53.1562H155.75L151.781 48.375V38.6875L157.219 32L156.531 30.625L150.062 38.3125V48.0312L153.844 51.4375H139.531L143.812 47.7812V15.0625L139.781 11.3438ZM178.281 14.1875C175.198 14.3958 172.125 16.1979 169.062 19.5938L163.594 25.6562L174.625 48.0312L183.469 54H163.594L162.719 53.1562H180.812L174.156 48.625L162.719 25.6562L168.531 19.0938C171.573 15.6979 174.708 13.8438 177.938 13.5312L178.281 14.1875ZM207.062 18.3125L206.531 18C204.531 16.8958 202.698 16.3438 201.031 16.3438C195.552 16.3438 192.812 21.7292 192.812 32.5C192.812 40.375 194.51 45.5938 197.906 48.1562L197.625 48.4688C195.542 46.9896 194.052 45.0521 193.156 42.6562C192.281 40.2396 191.844 36.9792 191.844 32.875C191.844 21.3125 194.885 15.5312 200.969 15.5312C203.74 15.5312 205.771 16.4583 207.062 18.3125ZM200.375 10.9375C205.438 10.9375 209.479 12.8542 212.5 16.6875C215.542 20.5208 217.062 25.6458 217.062 32.0625C217.062 38.125 215.562 42.9583 212.562 46.5625C209.583 50.1667 205.573 51.9688 200.531 51.9688C196.552 51.9688 193.01 50.6979 189.906 48.1562C185.344 44.4062 183.062 38.8542 183.062 31.5C183.062 25.2083 184.625 20.2083 187.75 16.5C190.875 12.7917 195.083 10.9375 200.375 10.9375ZM200.375 13.625C193.333 13.625 189.812 19.8125 189.812 32.1875C189.812 43.625 193.281 49.3438 200.219 49.3438C203.448 49.3438 205.906 47.8333 207.594 44.8125C209.281 41.7708 210.125 37.3333 210.125 31.5C210.125 24.8958 209.312 20.2917 207.688 17.6875C205.979 14.9792 203.542 13.625 200.375 13.625ZM210.344 12.5312C213.323 13.9688 215.677 16.4271 217.406 19.9062C219.135 23.3854 220 27.4062 220 31.9688C220 38.6771 218.292 44.0938 214.875 48.2188C211.479 52.3438 207.01 54.4062 201.469 54.4062C197.927 54.4062 194.615 53.2083 191.531 50.8125V50.6562C194.115 52.5521 197.354 53.5 201.25 53.5C206.479 53.5 210.771 51.5312 214.125 47.5938C217.479 43.6562 219.156 38.625 219.156 32.5C219.156 27.9375 218.385 23.9479 216.844 20.5312C215.323 17.1146 213.156 14.5625 210.344 12.875V12.5312Z" fill="black"/>
</svg>
